<svg height="34" viewBox="0 0 34 34" width="34" x="0" xmlns="http://www.w3.org/2000/svg" y="0">
<g>
<rect fill="#0055AA" height="8" stroke="#55CCEE" width="8" x="1" y="1"/>
<rect fill="#0055AA" height="8" stroke="#55CCEE" width="8" x="9" y="1"/>
<rect fill="#0055AA" height="8" stroke="#55CCEE" width="8" x="17" y="1"/>
<rect fill="#00AAFF" height="8" stroke="#55CCEE" width="8" x="25" y="1"/>
</g>
<g>
<rect fill="#0055AA" height="8" stroke="#55CCEE" width="8" x="1" y="9"/>
<rect fill="#0055AA" height="8" stroke="#55CCEE" width="8" x="9" y="9"/>
<rect fill="#00AAFF" height="8" stroke="#55CCEE" width="8" x="17" y="9"/>
<rect fill="#0055AA" height="8" stroke="#55CCEE" width="8" x="25" y="9"/>
</g>
<g>
<rect fill="#0055AA" height="8" stroke="#55CCEE" width="8" x="1" y="17"/>
<rect fill="#00AAFF" height="8" stroke="#55CCEE" width="8" x="9" y="17"/>
<rect fill="#FFDD00" height="8" stroke="#55CCEE" width="8" x="17" y="17"/>
<rect fill="#0055AA" height="8" stroke="#55CCEE" width="8" x="25" y="17"/>
</g>
<g>
<rect fill="#00AAFF" height="8" stroke="#55CCEE" width="8" x="1" y="25"/>
<rect fill="#0055AA" height="8" stroke="#55CCEE" width="8" x="9" y="25"/>
<rect fill="#0055AA" height="8" stroke="#55CCEE" width="8" x="17" y="25"/>
<rect fill="#0055AA" height="8" stroke="#55CCEE" width="8" x="25" y="25"/>
</g>
</svg>